<svg xmlns="http://www.w3.org/2000/svg"  viewBox="0 0 100 100" width="100px" height="100px"><path fill="#c7ede6" d="M87.215,56.71C88.35,54.555,89,52.105,89,49.5c0-6.621-4.159-12.257-10.001-14.478 C78.999,35.015,79,35.008,79,35c0-11.598-9.402-21-21-21c-9.784,0-17.981,6.701-20.313,15.757C36.211,29.272,34.638,29,33,29 c-7.692,0-14.023,5.793-14.89,13.252C12.906,43.353,9,47.969,9,53.5C9,59.851,14.149,65,20.5,65c0.177,0,0.352-0.012,0.526-0.022 C21.022,65.153,21,65.324,21,65.5C21,76.822,30.178,86,41.5,86c6.437,0,12.175-2.972,15.934-7.614C59.612,80.611,62.64,82,66,82 c4.65,0,8.674-2.65,10.666-6.518C77.718,75.817,78.837,76,80,76c6.075,0,11-4.925,11-11C91,61.689,89.53,58.727,87.215,56.71z"/><path fill="#fff" d="M15.405,51H5.5C5.224,51,5,50.776,5,50.5S5.224,50,5.5,50h9.905c0.276,0,0.5,0.224,0.5,0.5 S15.682,51,15.405,51z"/><path fill="#fff" d="M18.5,51h-1c-0.276,0-0.5-0.224-0.5-0.5s0.224-0.5,0.5-0.5h1c0.276,0,0.5,0.224,0.5,0.5 S18.777,51,18.5,51z"/><path fill="#fff" d="M23.491,53H14.5c-0.276,0-0.5-0.224-0.5-0.5s0.224-0.5,0.5-0.5h8.991c0.276,0,0.5,0.224,0.5,0.5 S23.767,53,23.491,53z"/><path fill="#fff" d="M12.5,53h-1c-0.276,0-0.5-0.224-0.5-0.5s0.224-0.5,0.5-0.5h1c0.276,0,0.5,0.224,0.5,0.5 S12.777,53,12.5,53z"/><path fill="#fff" d="M9.5,53h-2C7.224,53,7,52.776,7,52.5S7.224,52,7.5,52h2c0.276,0,0.5,0.224,0.5,0.5S9.777,53,9.5,53 z"/><path fill="#fff" d="M15.5,55h-2c-0.276,0-0.5-0.224-0.5-0.5s0.224-0.5,0.5-0.5h2c0.276,0,0.5,0.224,0.5,0.5 S15.776,55,15.5,55z"/><path fill="#fff" d="M18.5,46c-0.177,0-0.823,0-1,0c-0.276,0-0.5,0.224-0.5,0.5c0,0.276,0.224,0.5,0.5,0.5 c0.177,0,0.823,0,1,0c0.276,0,0.5-0.224,0.5-0.5C19,46.224,18.776,46,18.5,46z"/><path fill="#fff" d="M18.5,48c-0.177,0-4.823,0-5,0c-0.276,0-0.5,0.224-0.5,0.5c0,0.276,0.224,0.5,0.5,0.5 c0.177,0,4.823,0,5,0c0.276,0,0.5-0.224,0.5-0.5C19,48.224,18.776,48,18.5,48z"/><path fill="#fff" d="M23.5,50c-0.177,0-2.823,0-3,0c-0.276,0-0.5,0.224-0.5,0.5c0,0.276,0.224,0.5,0.5,0.5 c0.177,0,2.823,0,3,0c0.276,0,0.5-0.224,0.5-0.5C24,50.224,23.776,50,23.5,50z"/><g><path fill="#fff" d="M84.5,65h-10c-0.276,0-0.5-0.224-0.5-0.5s0.224-0.5,0.5-0.5h10c0.276,0,0.5,0.224,0.5,0.5 S84.776,65,84.5,65z"/><path fill="#fff" d="M88.5,65h-2c-0.276,0-0.5-0.224-0.5-0.5s0.224-0.5,0.5-0.5h2c0.276,0,0.5,0.224,0.5,0.5 S88.776,65,88.5,65z"/><path fill="#fff" d="M93.5,67h-10c-0.276,0-0.5-0.224-0.5-0.5s0.224-0.5,0.5-0.5h10c0.276,0,0.5,0.224,0.5,0.5 S93.777,67,93.5,67z"/><path fill="#fff" d="M81.5,67h-1c-0.276,0-0.5-0.224-0.5-0.5s0.224-0.5,0.5-0.5h1c0.276,0,0.5,0.224,0.5,0.5 S81.776,67,81.5,67z"/><path fill="#fff" d="M78.375,67H76.5c-0.276,0-0.5-0.224-0.5-0.5s0.224-0.5,0.5-0.5h1.875c0.276,0,0.5,0.224,0.5,0.5 S78.651,67,78.375,67z"/><path fill="#fff" d="M87.5,63h-5c-0.276,0-0.5-0.224-0.5-0.5s0.224-0.5,0.5-0.5h5c0.276,0,0.5,0.224,0.5,0.5 S87.777,63,87.5,63z"/><path fill="#fff" d="M84.5,69h-2c-0.276,0-0.5-0.224-0.5-0.5s0.224-0.5,0.5-0.5h2c0.276,0,0.5,0.224,0.5,0.5 S84.776,69,84.5,69z"/></g><g><path fill="#fdfcef" d="M31.875,34.5c0,0,3.64,0,6.125,0s4.5-2.015,4.5-4.5c0-2.333-1.782-4.229-4.055-4.455 C38.467,25.364,38.5,25.187,38.5,25c0-2.485-2.015-4.5-4.5-4.5c-1.438,0-2.703,0.686-3.527,1.736 C30.333,19.6,28.171,17.5,25.5,17.5c-2.761,0-5,2.239-5,5c0,0.446,0.077,0.87,0.187,1.282C20.045,23.005,19.087,22.5,18,22.5 c-1.781,0-3.234,1.335-3.455,3.055C14.364,25.533,14.187,25.5,14,25.5c-2.485,0-4.5,2.015-4.5,4.5s2.015,4.5,4.5,4.5s9.5,0,9.5,0 h5.375V35h3V34.5z"/><path fill="#472b29" d="M25.5,17c-3.033,0-5.5,2.467-5.5,5.5c0,0.016,0,0.031,0,0.047C19.398,22.192,18.71,22,18,22 c-1.831,0-3.411,1.261-3.858,3.005C14.095,25.002,14.048,25,14,25c-2.757,0-5,2.243-5,5s2.243,5,5,5h14.875 c0.276,0,0.5-0.224,0.5-0.5c0-0.276-0.224-0.5-0.5-0.5H14c-2.206,0-4-1.794-4-4s1.794-4,4-4c0.117,0,0.23,0.017,0.343,0.032 l0.141,0.019c0.021,0.003,0.041,0.004,0.062,0.004c0.246,0,0.462-0.185,0.495-0.437C15.232,24.125,16.504,23,18,23 c0.885,0,1.723,0.401,2.301,1.1c0.098,0.118,0.241,0.182,0.386,0.182c0.078,0,0.156-0.018,0.228-0.056 c0.209-0.107,0.314-0.346,0.254-0.573C21.054,23.218,21,22.852,21,22.5c0-2.481,2.019-4.5,4.5-4.5c2.381,0,4.347,1.872,4.474,4.263 c0.011,0.208,0.15,0.387,0.349,0.45c0.05,0.016,0.101,0.024,0.152,0.024c0.15,0,0.296-0.069,0.392-0.192 C31.638,21.563,32.779,21,34,21c2.206,0,4,1.794,4,4c0,0.117-0.017,0.23-0.032,0.343l-0.019,0.141 c-0.016,0.134,0.022,0.268,0.106,0.373s0.207,0.172,0.34,0.185C40.451,26.247,42,27.949,42,30c0,2.206-1.794,4-4,4h-6.125 c-0.276,0-0.5,0.224-0.5,0.5c0,0.276,0.224,0.5,0.5,0.5H38c2.757,0,5-2.243,5-5c0-2.397-1.689-4.413-4.003-4.877 C38.999,25.082,39,25.041,39,25c0-2.757-2.243-5-5-5c-1.176,0-2.293,0.416-3.183,1.164C30.219,18.76,28.055,17,25.5,17L25.5,17z"/><path fill="#472b29" d="M24,24c-1.403,0-2.609,0.999-2.913,2.341C20.72,26.119,20.301,26,19.875,26 c-1.202,0-2.198,0.897-2.353,2.068C17.319,28.022,17.126,28,16.937,28c-1.529,0-2.811,1.2-2.918,2.732 C14.01,30.87,14.114,30.99,14.251,31c0.006,0,0.012,0,0.018,0c0.13,0,0.24-0.101,0.249-0.232c0.089-1.271,1.151-2.268,2.419-2.268 c0.229,0,0.47,0.042,0.738,0.127c0.022,0.007,0.045,0.01,0.067,0.01c0.055,0,0.11-0.02,0.156-0.054 C17.962,28.537,18,28.455,18,28.375c0-1.034,0.841-1.875,1.875-1.875c0.447,0,0.885,0.168,1.231,0.473 c0.047,0.041,0.106,0.063,0.165,0.063c0.032,0,0.063-0.006,0.093-0.019c0.088-0.035,0.148-0.117,0.155-0.212 C21.623,25.512,22.712,24.5,24,24.5c0.208,0,0.425,0.034,0.682,0.107c0.023,0.007,0.047,0.01,0.07,0.01 c0.109,0,0.207-0.073,0.239-0.182c0.038-0.133-0.039-0.271-0.172-0.309C24.517,24.04,24.256,24,24,24L24,24z"/></g><g><path fill="#fdfcef" d="M84.5,42.5c0,0,1.567,0,3.5,0s3.5-1.567,3.5-3.5c0-1.781-1.335-3.234-3.055-3.455 C88.473,35.366,88.5,35.187,88.5,35c0-1.933-1.567-3.5-3.5-3.5c-1.032,0-1.95,0.455-2.59,1.165 c-0.384-1.808-1.987-3.165-3.91-3.165c-2.209,0-4,1.791-4,4c0,0.191,0.03,0.374,0.056,0.558C74.128,33.714,73.592,33.5,73,33.5 c-1.228,0-2.245,0.887-2.455,2.055C70.366,35.527,70.187,35.5,70,35.5c-1.933,0-3.5,1.567-3.5,3.5s1.567,3.5,3.5,3.5s7.5,0,7.5,0 V43h7V42.5z"/><path fill="#472b29" d="M86.25,38C86.112,38,86,37.888,86,37.75c0-1.223,0.995-2.218,2.218-2.218 c0.034,0.009,0.737-0.001,1.244,0.136c0.133,0.036,0.212,0.173,0.176,0.306c-0.036,0.134-0.173,0.213-0.306,0.176 c-0.444-0.12-1.1-0.12-1.113-0.118c-0.948,0-1.719,0.771-1.719,1.718C86.5,37.888,86.388,38,86.25,38z"/><circle cx="79.5" cy="42.5" r=".5" fill="#472b29"/><path fill="#472b29" d="M88,43h-3.5c-0.276,0-0.5-0.224-0.5-0.5s0.224-0.5,0.5-0.5H88c1.654,0,3-1.346,3-3 c0-1.496-1.125-2.768-2.618-2.959c-0.134-0.018-0.255-0.088-0.336-0.196s-0.115-0.244-0.094-0.377C87.975,35.314,88,35.16,88,35 c0-1.654-1.346-3-3-3c-0.85,0-1.638,0.355-2.219,1c-0.125,0.139-0.321,0.198-0.5,0.148c-0.182-0.049-0.321-0.195-0.36-0.379 C81.58,31.165,80.141,30,78.5,30c-1.93,0-3.5,1.57-3.5,3.5c0,0.143,0.021,0.28,0.041,0.418c0.029,0.203-0.063,0.438-0.242,0.54 s-0.396,0.118-0.556-0.01C73.878,34.155,73.449,34,73,34c-0.966,0-1.792,0.691-1.963,1.644c-0.048,0.267-0.296,0.446-0.569,0.405 C70.314,36.025,70.16,36,70,36c-1.654,0-3,1.346-3,3s1.346,3,3,3h7.5c0.276,0,0.5,0.224,0.5,0.5S77.776,43,77.5,43H70 c-2.206,0-4-1.794-4-4s1.794-4,4-4c0.059,0,0.116,0.002,0.174,0.006C70.588,33.82,71.711,33,73,33c0.349,0,0.689,0.061,1.011,0.18 C74.176,30.847,76.126,29,78.5,29c1.831,0,3.466,1.127,4.153,2.774C83.333,31.276,84.155,31,85,31c2.206,0,4,1.794,4,4 c0,0.048-0.001,0.095-0.004,0.142C90.739,35.59,92,37.169,92,39C92,41.206,90.206,43,88,43z"/><path fill="#472b29" d="M82.5,42c-0.159,0-0.841,0-1,0c-0.276,0-0.5,0.224-0.5,0.5s0.224,0.5,0.5,0.5c0.159,0,0.841,0,1,0 c0.276,0,0.5-0.224,0.5-0.5S82.776,42,82.5,42z"/></g><g><path fill="#355ca8" d="M59.078,56.693l-5.126-15.871c-0.298-0.924-1.605-0.924-1.903,0l-5.126,15.871 C46.714,57.338,47.195,58,47.874,58h10.252C58.805,58,59.286,57.338,59.078,56.693z"/><path fill="#472b29" d="M53.381,41.252h0.005H53.381 M53,42.43l4.577,14.17h-9.153L53,42.43 M53,40.129 c-0.401,0-0.802,0.231-0.952,0.693l-5.126,15.871C46.714,57.338,47.195,58,47.874,58h10.252c0.679,0,1.16-0.662,0.952-1.307 l-5.126-15.871C53.802,40.36,53.401,40.129,53,40.129L53,40.129z"/><path fill="#ee3e54" d="M72,57.632V37c0-4.418-3.582-8-8-8h-2.966c-0.693,0-1.176,0.688-0.941,1.339l9.966,27.632 C70.439,59.025,72,58.752,72,57.632z"/><path fill="#472b29" d="M64,30.4c3.639,0,6.6,2.961,6.6,6.6v18.344L61.604,30.4H64 M64,29h-2.966 c-0.693,0-1.176,0.688-0.941,1.339l9.966,27.632c0.164,0.454,0.546,0.662,0.929,0.662c0.506,0,1.012-0.363,1.012-1.001V37 C72,32.582,68.418,29,64,29L64,29z"/><g><path fill="#355ca8" d="M61.261,66H44.714c-0.427,0-0.807,0.271-0.946,0.675l-1.719,5C41.826,72.324,42.308,73,42.995,73 H62.8c0.745,0,1.175-0.582,0.956-1.294l-1.538-5C62.088,66.286,61.7,66,61.261,66z"/><path fill="#472b29" d="M45.092,67.13h0.005H45.092 M60.966,67.4l1.292,4.2H43.555l1.444-4.2H60.966 M61.261,66H44.714 c-0.427,0-0.807,0.271-0.946,0.675l-1.719,5C41.826,72.324,42.308,73,42.995,73H62.8c0.745,0,1.175-0.582,0.956-1.294l-1.538-5 C62.088,66.286,61.7,66,61.261,66L61.261,66z"/></g><g><path fill="#355ca8" d="M45.483,29H36c-4.418,0-8,3.582-8,8v28c0,2.335,1.003,4.431,2.6,5.891 c0.536,0.49,1.396,0.291,1.637-0.393l14.189-40.165C46.656,29.682,46.173,29,45.483,29z"/><path fill="#472b29" d="M44.917,30.4L31.126,69.44C30.023,68.231,29.4,66.643,29.4,65V37c0-3.639,2.961-6.6,6.6-6.6H44.917 M45.483,29H36c-4.418,0-8,3.582-8,8v28c0,2.335,1.003,4.431,2.6,5.891c0.202,0.185,0.45,0.271,0.693,0.271 c0.403,0,0.794-0.238,0.945-0.665l14.189-40.165C46.656,29.682,46.173,29,45.483,29L45.483,29z"/></g></g><g><path fill="#472b29" d="M32,46c0.207,0,0.375-0.168,0.375-0.375v-3.25C32.375,42.168,32.207,42,32,42 s-0.375,0.168-0.375,0.375v3.25C31.625,45.832,31.793,46,32,46z"/><path fill="#472b29" d="M41.625,32.625H39h-0.625H36c-2.413,0-4.375,1.962-4.375,4.375v3.625C31.625,40.832,31.793,41,32,41 s0.375-0.168,0.375-0.375V37c0-1.999,1.626-3.625,3.625-3.625h2.375H39h2.625C41.832,33.375,42,33.207,42,33 S41.832,32.625,41.625,32.625z"/><path fill="#472b29" d="M32,60c0.207,0,0.375-0.168,0.375-0.375v-11.25C32.375,48.168,32.207,48,32,48 s-0.375,0.168-0.375,0.375v11.25C31.625,59.832,31.793,60,32,60z"/></g></svg>