<svg width="218" height="41" viewBox="0 0 218 41" fill="none" xmlns="http://www.w3.org/2000/svg">
<g clip-path="url(#clip0_1_510)">
<path d="M131.044 22.4705C131.055 20.7539 130.615 19.066 129.772 17.5827C129.299 16.7418 128.706 15.978 128.013 15.3169L124.698 18.7136C124.777 18.7844 124.855 18.8614 124.93 18.9406C125.783 19.909 126.254 21.1671 126.254 22.4715C126.254 23.7759 125.783 25.034 124.93 26.0025C124.499 26.4663 123.978 26.8321 123.4 27.0761C122.823 27.3201 122.201 27.4368 121.577 27.4186C120.947 27.4347 120.321 27.3172 119.738 27.0735C119.155 26.8298 118.627 26.4652 118.188 26.0025C117.312 25.0456 116.825 23.7832 116.825 22.4715C116.825 21.1599 117.312 19.8974 118.188 18.9406C118.623 18.4829 119.145 18.1214 119.721 17.8782C120.298 17.635 120.917 17.5153 121.54 17.5265H121.577C122.101 17.5221 122.622 17.6036 123.121 17.7681L125.602 15.2232L123.339 12.8907C122.747 12.7801 122.146 12.7244 121.544 12.7241C119.661 12.72 117.82 13.2881 116.252 14.3567C114.684 15.4252 113.46 16.9462 112.735 18.7273C112.011 20.5084 111.818 22.4697 112.18 24.3633C112.543 26.2569 113.446 27.9978 114.774 29.3658C116.102 30.7339 117.796 31.6677 119.642 32.0492C121.487 32.4307 123.402 32.2428 125.144 31.5093C126.885 30.7758 128.376 29.5295 129.426 27.9281C130.477 26.3266 131.041 24.4419 131.046 22.5121L131.044 22.4705Z" fill="url(#paint0_linear_1_510)"/>
<path d="M126.677 15.0126L123.809 17.9511L121.54 20.2731V9.75L126.677 15.0126Z" fill="url(#paint1_linear_1_510)"/>
<path d="M68.7085 25.6227C68.135 24.8946 67.8482 23.692 67.8482 22.0151V17.1719L62.5376 18.0558V22.0151C62.5376 25.3998 63.3497 27.9167 64.9739 29.5658C66.5981 31.215 68.7883 32.0403 71.5445 32.0418V26.7242C70.2273 26.7242 69.282 26.357 68.7085 25.6227Z" fill="url(#paint2_linear_1_510)"/>
<path d="M62.5264 8.9024V2.42773H67.846V7.9953L62.5264 8.9024Z" fill="url(#paint3_linear_1_510)"/>
<path d="M71.458 14.1809L70.6 8.90723L64.7452 9.85829L62.5301 10.3211V11.2467C62.4579 11.3624 62.3585 11.4272 62.0785 11.3508L60.3377 10.8695C60.1804 10.8264 60.0149 10.825 59.8569 10.8655C59.6989 10.9059 59.5535 10.987 59.4345 11.1009L58.0256 12.4361C58.0133 12.4484 58.0037 12.4632 57.9974 12.4795C57.9912 12.4959 57.9885 12.5135 57.9894 12.531C57.9911 12.5487 57.997 12.5657 58.0064 12.5806C58.0158 12.5955 58.0286 12.6078 58.0436 12.6166C58.1938 12.7089 58.3692 12.7489 58.5434 12.7305C58.7176 12.7122 58.8813 12.6365 59.01 12.5148L59.5881 11.9664C59.7282 11.8348 59.906 11.7529 60.0951 11.7329C60.2842 11.7129 60.4746 11.7558 60.638 11.8553L63.0382 13.3386C63.1898 13.4287 63.3015 13.5755 63.3498 13.7482C63.4288 14.8265 62.3901 15.5832 62.4466 15.5763L65.2916 15.0949L71.458 14.1809Z" fill="url(#paint4_linear_1_510)"/>
<path d="M55.4453 8.6325C56.1845 8.05282 57.0909 7.74182 58.0216 7.74854V2.42627C55.3121 2.42627 53.2047 3.18064 51.6994 4.68939C50.1941 6.19814 49.3278 8.28077 49.1005 10.9373H45.9395V16.2596H49.0102V31.9047H54.3299V16.2688H55.5537V10.9465H54.4247C54.4051 10.5057 54.4872 10.0664 54.6646 9.66424C54.8419 9.26213 55.1094 8.90862 55.4453 8.6325Z" fill="url(#paint5_linear_1_510)"/>
<path d="M63.0268 13.845C63.0159 13.7968 62.9955 13.7513 62.9667 13.7115C62.938 13.6717 62.9016 13.6384 62.8597 13.6136L60.4528 12.1419C60.35 12.0787 60.23 12.0514 60.1107 12.0639C59.9915 12.0764 59.8794 12.1281 59.7912 12.2113L59.2132 12.762C59.0325 12.9322 58.8031 13.038 58.559 13.0638C58.3149 13.0897 58.0692 13.0342 57.8584 12.9055C57.7981 12.8686 57.7474 12.8174 57.7104 12.7562C57.6735 12.695 57.6515 12.6255 57.6462 12.5538C57.6427 12.4844 57.6544 12.4151 57.6806 12.351C57.7068 12.2869 57.7467 12.2296 57.7975 12.1835L58.7955 11.2163C58.8104 11.2002 58.8196 11.1794 58.8214 11.1573C58.8232 11.1351 58.8176 11.113 58.8055 11.0947C58.7933 11.0763 58.7754 11.0627 58.7547 11.0562C58.734 11.0497 58.7117 11.0506 58.6916 11.0589L56.9778 11.885C56.7168 12.0111 56.4271 12.0615 56.1401 12.0308V10.9316H45.9434V16.2539H56.1334V14.5462C56.3388 14.5422 56.5438 14.5663 56.743 14.6179C57.1577 15.0961 57.6774 15.4664 58.2592 15.6982C58.841 15.9299 59.4683 16.0165 60.0893 15.9508C60.1406 15.9515 60.1907 15.9343 60.2313 15.9019C60.2718 15.8696 60.3004 15.824 60.3122 15.7727C60.324 15.7215 60.3185 15.6676 60.2964 15.6201C60.2744 15.5725 60.2371 15.5341 60.1909 15.5111L59.8431 15.2982C59.8043 15.2767 59.7754 15.2402 59.7627 15.1968C59.75 15.1535 59.7545 15.1067 59.7754 15.0668C59.7853 15.0466 59.7992 15.0287 59.8161 15.0142C59.8331 14.9998 59.8528 14.9891 59.874 14.9828C59.8952 14.9765 59.9174 14.9747 59.9393 14.9776C59.9612 14.9805 59.9823 14.9881 60.0012 14.9997L60.3467 15.2126H60.3625L60.9495 15.5852C61.0106 15.6235 61.0822 15.6404 61.1535 15.6333C61.2248 15.6262 61.2919 15.5955 61.3447 15.5458C61.401 15.494 61.4377 15.4236 61.4485 15.3468C61.4584 15.2806 61.4491 15.2129 61.4219 15.152C61.3946 15.0911 61.3505 15.0398 61.295 15.0043L60.5883 14.5716C60.5552 14.5519 60.5298 14.5211 60.5163 14.4845C60.5027 14.4478 60.5018 14.4075 60.5137 14.3703C60.5294 14.3292 60.5603 14.2962 60.5996 14.2784C60.639 14.2606 60.6836 14.2595 60.7237 14.2754H60.7395L61.4463 14.7105L61.8414 14.9419C61.9012 14.9801 61.9711 14.9984 62.0414 14.9942C62.1118 14.9901 62.1792 14.9637 62.2343 14.9187C62.2772 14.8835 62.3105 14.8375 62.3311 14.7852C62.3516 14.7329 62.3587 14.6761 62.3517 14.6202C62.3463 14.5687 62.3295 14.5192 62.3024 14.4755C62.2754 14.4318 62.239 14.395 62.1959 14.368L61.3085 13.8196C61.2755 13.7998 61.2501 13.769 61.2365 13.7324C61.223 13.6958 61.2221 13.6555 61.234 13.6182C61.2497 13.5777 61.2802 13.5451 61.319 13.5274C61.3578 13.5096 61.4019 13.5082 61.4417 13.5234H61.4598L62.363 14.0718L62.4917 14.1528C62.5658 14.1957 62.6527 14.2093 62.7359 14.191C62.8192 14.1726 62.8929 14.1236 62.9433 14.0533C62.9935 13.9957 63.023 13.9222 63.0268 13.845Z" fill="url(#paint6_linear_1_510)"/>
<path d="M34.4308 32.0369C32.4028 32.0369 30.5728 31.6229 28.9408 30.7949C27.3088 29.9549 26.0128 28.8029 25.0528 27.3389C24.0928 25.8629 23.6128 24.1649 23.6128 22.2449C23.6128 20.3249 24.0868 18.6329 25.0348 17.1689C25.9948 15.6929 27.2908 14.5409 28.9228 13.7129C30.5668 12.8729 32.4028 12.4529 34.4308 12.4529C36.4708 12.4529 38.3068 12.8729 39.9388 13.7129C41.5708 14.5409 42.8608 15.6929 43.8088 17.1689C44.7688 18.6329 45.2488 20.3249 45.2488 22.2449C45.2488 24.1649 44.7688 25.8629 43.8088 27.3389C42.8608 28.8029 41.5708 29.9549 39.9388 30.7949C38.3068 31.6229 36.4708 32.0369 34.4308 32.0369ZM34.4488 27.3209C35.3848 27.3209 36.2368 27.1049 37.0048 26.6729C37.7728 26.2409 38.3788 25.6469 38.8228 24.8909C39.2668 24.1229 39.4888 23.2409 39.4888 22.2449C39.4888 21.2489 39.2668 20.3729 38.8228 19.6169C38.3788 18.8489 37.7728 18.2489 37.0048 17.8169C36.2368 17.3849 35.3848 17.1689 34.4488 17.1689C33.5008 17.1689 32.6428 17.3849 31.8748 17.8169C31.1188 18.2489 30.5188 18.8489 30.0748 19.6169C29.6308 20.3729 29.4088 21.2489 29.4088 22.2449C29.4088 23.2409 29.6308 24.1229 30.0748 24.8909C30.5188 25.6469 31.1188 26.2409 31.8748 26.6729C32.6428 27.1049 33.5008 27.3209 34.4488 27.3209Z" fill="url(#paint7_linear_1_510)"/>
<path d="M97.2578 31.75V13.318H102.784V15.964C103.468 14.932 104.302 14.14 105.286 13.588C106.282 13.024 107.35 12.742 108.49 12.742C109.138 12.742 109.81 12.838 110.506 13.03C111.202 13.222 111.784 13.468 112.252 13.768L109.948 18.43C109.54 18.154 109.06 17.938 108.508 17.782C107.968 17.614 107.464 17.53 106.996 17.53C106.276 17.53 105.592 17.716 104.944 18.088C104.296 18.46 103.774 18.946 103.378 19.546C102.982 20.134 102.784 20.77 102.784 21.454V31.75H97.2578Z" fill="black"/>
<path d="M141.89 32.326C140.222 32.326 138.698 31.912 137.318 31.084C135.95 30.244 134.858 29.086 134.042 27.61C133.226 26.134 132.818 24.442 132.818 22.534C132.818 20.662 133.214 18.994 134.006 17.53C134.798 16.054 135.884 14.89 137.264 14.038C138.656 13.174 140.246 12.742 142.034 12.742C143.33 12.742 144.53 12.994 145.634 13.498C146.738 13.99 147.656 14.68 148.388 15.568V0.789978H153.914V31.75H148.388V29.32C147.572 30.268 146.606 31.006 145.49 31.534C144.374 32.062 143.174 32.326 141.89 32.326ZM143.546 27.628C144.518 27.628 145.376 27.412 146.12 26.98C146.864 26.536 147.446 25.93 147.866 25.162C148.298 24.394 148.514 23.524 148.514 22.552C148.514 21.568 148.298 20.692 147.866 19.924C147.446 19.156 146.864 18.55 146.12 18.106C145.376 17.662 144.524 17.44 143.564 17.44C142.616 17.44 141.77 17.662 141.026 18.106C140.294 18.55 139.712 19.162 139.28 19.942C138.848 20.71 138.632 21.586 138.632 22.57C138.632 23.542 138.842 24.412 139.262 25.18C139.682 25.936 140.264 26.536 141.008 26.98C141.752 27.412 142.598 27.628 143.546 27.628Z" fill="black"/>
<path d="M160.24 32V13.568H165.766V32H160.24ZM163.012 9.73401C162.412 9.73401 161.86 9.59001 161.356 9.30201C160.864 9.00201 160.468 8.60001 160.168 8.09601C159.868 7.59201 159.718 7.04001 159.718 6.44001C159.718 5.84001 159.868 5.29401 160.168 4.80201C160.468 4.31001 160.864 3.92001 161.356 3.63201C161.86 3.33201 162.412 3.18201 163.012 3.18201C163.612 3.18201 164.158 3.33201 164.65 3.63201C165.142 3.92001 165.532 4.31001 165.82 4.80201C166.12 5.29401 166.27 5.84001 166.27 6.44001C166.27 7.04001 166.12 7.59201 165.82 8.09601C165.532 8.60001 165.142 9.00201 164.65 9.30201C164.158 9.59001 163.612 9.73401 163.012 9.73401Z" fill="black"/>
<path d="M181.132 40.9C178.648 40.9 176.56 40.444 174.868 39.532C173.176 38.632 171.946 37.3 171.178 35.536L175.678 33.34C176.182 34.192 176.926 34.87 177.91 35.374C178.894 35.878 179.962 36.13 181.114 36.13C182.158 36.13 183.076 35.92 183.868 35.5C184.66 35.092 185.278 34.51 185.722 33.754C186.166 33.01 186.388 32.146 186.388 31.162V28.57C185.572 29.518 184.606 30.256 183.49 30.784C182.374 31.312 181.174 31.576 179.89 31.576C178.222 31.576 176.698 31.162 175.318 30.334C173.95 29.494 172.858 28.336 172.042 26.86C171.226 25.384 170.818 23.692 170.818 21.784C170.818 19.912 171.214 18.244 172.006 16.78C172.81 15.304 173.902 14.14 175.282 13.288C176.674 12.424 178.258 11.992 180.034 11.992C181.33 11.992 182.53 12.244 183.634 12.748C184.738 13.24 185.656 13.93 186.388 14.818V12.568H191.914V31.504C191.914 33.316 191.518 34.93 190.726 36.346C189.946 37.762 188.758 38.872 187.162 39.676C185.566 40.492 183.556 40.9 181.132 40.9ZM181.546 26.878C182.518 26.878 183.376 26.662 184.12 26.23C184.876 25.786 185.464 25.186 185.884 24.43C186.304 23.662 186.514 22.792 186.514 21.82C186.514 20.824 186.298 19.942 185.866 19.174C185.446 18.406 184.864 17.8 184.12 17.356C183.376 16.912 182.53 16.69 181.582 16.69C180.634 16.69 179.788 16.912 179.044 17.356C178.3 17.8 177.712 18.412 177.28 19.192C176.848 19.96 176.632 20.836 176.632 21.82C176.632 22.792 176.842 23.662 177.262 24.43C177.682 25.186 178.264 25.786 179.008 26.23C179.752 26.662 180.598 26.878 181.546 26.878Z" fill="black"/>
<path d="M197.502 40.36L203.46 28.696L194.694 12.568H201.03L206.682 23.368L211.578 12.568H217.914L203.82 40.36H197.502Z" fill="black"/>
<path d="M19.7108 18.714C19.4802 18.3682 19.1344 18.0224 18.7886 17.6766C17.9818 16.985 17.0596 16.4087 15.9069 15.8323C14.7543 15.256 13.6016 14.6797 12.2184 14.1033C11.5268 13.8728 10.9505 13.6423 10.4894 13.4117C9.91306 13.1812 9.45199 12.9507 9.10619 12.7201C8.76038 12.4896 8.41458 12.1438 8.18405 11.798C7.95351 11.4522 7.83825 10.9911 7.83825 10.5301C7.83825 9.95372 7.95351 9.37738 8.29932 8.91631C8.52985 8.45524 8.99092 8.10944 9.45199 7.87891C5.8787 7.87891 4.03443 13.1812 5.5329 16.5239C5.64817 16.6392 5.8787 16.7545 5.99397 16.8697C6.68558 17.3308 7.49245 17.6766 8.29932 18.0224C9.33672 18.4835 10.2589 18.9446 11.0657 19.2904C11.8726 19.6362 12.5642 20.0972 13.1405 20.443C13.7169 20.7888 14.1779 21.2499 14.4085 21.711C14.7543 22.172 14.8695 22.7484 14.8695 23.44C14.8695 24.2468 14.639 24.8232 14.2932 25.3995C14.0627 25.7453 13.6016 26.0911 13.1405 26.3217C17.1749 26.0911 19.2497 22.5178 19.7108 18.714Z" fill="url(#paint8_linear_1_510)"/>
<path d="M20.5176 20.0971C20.287 19.636 20.0565 19.1749 19.7107 18.7139C19.2496 22.633 17.1748 26.091 13.2557 26.3215C13.1405 26.4368 13.0252 26.4368 12.9099 26.552C12.3336 26.7826 11.5267 26.8978 10.7198 26.8978C9.79771 26.8978 8.99084 26.7826 8.18397 26.552C7.3771 26.3215 6.6855 25.9757 5.99389 25.6299C5.41756 25.1688 4.84122 24.823 4.26489 24.362C3.68855 23.9009 3.22748 23.5551 2.88168 23.2093L0 27.9352C0.345802 28.281 0.922137 28.7421 1.49847 29.2032C2.19008 29.6642 2.88168 30.1253 3.80382 30.5864C4.72595 31.0475 5.76336 31.3933 6.91603 31.7391C8.0687 32.0849 9.33664 32.2001 10.6046 32.2001C12.6794 32.2001 14.5237 31.8543 16.1374 31.1627C17.7511 30.4711 18.9038 29.4337 19.826 28.1658C20.7481 26.7826 21.2092 25.2841 21.2092 23.4398C21.2092 22.0566 20.9786 20.9039 20.5176 20.0971Z" fill="url(#paint9_linear_1_510)"/>
<path d="M9.56701 7.76336C9.68228 7.76336 9.68228 7.64809 9.79754 7.64809C10.3739 7.30229 11.0655 7.18702 11.9876 7.18702C12.6792 7.18702 13.4861 7.30229 14.1777 7.53282C14.8693 7.76336 15.5609 7.99389 16.2525 8.33969C16.9441 8.6855 17.5204 9.0313 17.9815 9.49237L20.4021 4.99695C19.7105 4.42061 19.0189 3.95954 18.0968 3.49847C17.1746 3.0374 16.1372 2.6916 15.0998 2.3458C14.0624 2 12.7945 2 11.7571 2C10.3739 2 9.10594 2.23053 7.95327 2.6916C6.8006 3.15267 5.87846 3.84427 4.95632 4.65114C4.14945 5.45801 3.45785 6.38015 2.99678 7.30229C2.53571 8.33969 2.30518 9.3771 2.30518 10.5298C2.30518 11.4519 2.42044 12.374 2.76624 13.0656C3.11205 13.8725 3.57312 14.4489 4.03418 15.1405C4.49525 15.6015 4.95632 16.0626 5.41739 16.4084C4.14945 13.0656 5.87846 7.87863 9.56701 7.76336Z" fill="url(#paint10_linear_1_510)"/>
<mask id="mask0_1_510" style="mask-type:luminance" maskUnits="userSpaceOnUse" x="76" y="2" width="21" height="30">
<path d="M96.11 2H76V31.7H96.11V2Z" fill="white"/>
</mask>
<g mask="url(#mask0_1_510)">
<path d="M94.81 6.01023C93.95 4.68023 92.76 3.68023 91.26 3.00023C89.76 2.32023 88.04 1.99023 86.11 1.99023H76V31.7002H81.83V20.3102H84.72C86.35 18.7602 87.23 16.8302 87.94 14.8202C87.68 14.9702 87.41 15.1002 87.12 15.2002C86.27 15.5002 85.33 15.6502 84.31 15.6502H81.83V6.66023H84.31C85.33 6.66023 86.27 6.81023 87.12 7.11023C87.98 7.40023 88.68 7.87023 89.21 8.53023C89.29 8.63023 89.35 8.74023 89.42 8.85023C91.82 10.3302 93.89 12.2902 95.47 14.6202C95.88 13.5302 96.1 12.3202 96.1 10.9602C96.1 8.98024 95.67 7.33023 94.8 6.01023H94.81Z" fill="url(#paint11_linear_1_510)"/>
<path d="M89.43 8.85986C89.81 9.46986 90.01 10.2199 90.01 11.1499C90.01 12.2299 89.75 13.0999 89.22 13.7599C88.87 14.1899 88.45 14.5399 87.95 14.8199C87.24 16.8299 86.36 18.7599 84.73 20.3099H86.12C88.05 20.3099 89.77 19.9399 91.27 19.2099C92.77 18.4699 93.95 17.3999 94.82 16.0099C95.09 15.5799 95.3 15.1199 95.48 14.6299C93.9 12.2999 91.83 10.3399 89.43 8.85986Z" fill="url(#paint12_linear_1_510)"/>
<path d="M81.83 6.56982H76V31.6998H81.83V6.56982Z" fill="url(#paint13_linear_1_510)"/>
</g>
</g>
<defs>
<linearGradient id="paint0_linear_1_510" x1="112.034" y1="22.483" x2="131.044" y2="22.483" gradientUnits="userSpaceOnUse">
<stop stop-color="#F18232"/>
<stop offset="0.32" stop-color="#E66509"/>
<stop offset="0.68" stop-color="#FF9446"/>
<stop offset="1" stop-color="#F18232"/>
</linearGradient>
<linearGradient id="paint1_linear_1_510" x1="121.549" y1="15.0116" x2="126.677" y2="15.0116" gradientUnits="userSpaceOnUse">
<stop stop-color="#F18232"/>
<stop offset="0.32" stop-color="#E66509"/>
<stop offset="0.68" stop-color="#FF9446"/>
<stop offset="1" stop-color="#F18232"/>
</linearGradient>
<linearGradient id="paint2_linear_1_510" x1="62.5263" y1="24.6069" x2="71.5332" y2="24.6069" gradientUnits="userSpaceOnUse">
<stop stop-color="#4B494A"/>
<stop offset="1" stop-color="#0B0B0B"/>
</linearGradient>
<linearGradient id="paint3_linear_1_510" x1="62.5264" y1="5.66507" x2="67.846" y2="5.66507" gradientUnits="userSpaceOnUse">
<stop stop-color="#4B494A"/>
<stop offset="1" stop-color="#0B0B0B"/>
</linearGradient>
<linearGradient id="paint4_linear_1_510" x1="58.0118" y1="12.2418" x2="71.4566" y2="12.2418" gradientUnits="userSpaceOnUse">
<stop stop-color="#F18232"/>
<stop offset="0.32" stop-color="#E66509"/>
<stop offset="0.68" stop-color="#FF9446"/>
<stop offset="1" stop-color="#F18232"/>
</linearGradient>
<linearGradient id="paint5_linear_1_510" x1="45.944" y1="17.169" x2="58.0261" y2="17.169" gradientUnits="userSpaceOnUse">
<stop stop-color="#4B494A"/>
<stop offset="1" stop-color="#0B0B0B"/>
</linearGradient>
<linearGradient id="paint6_linear_1_510" x1="45.972" y1="13.5927" x2="63.025" y2="13.5927" gradientUnits="userSpaceOnUse">
<stop stop-color="#F18232"/>
<stop offset="0.32" stop-color="#E66509"/>
<stop offset="0.68" stop-color="#FF9446"/>
<stop offset="1" stop-color="#F18232"/>
</linearGradient>
<linearGradient id="paint7_linear_1_510" x1="21.9928" y1="20.4609" x2="47.0053" y2="20.4609" gradientUnits="userSpaceOnUse">
<stop stop-color="#4B494A"/>
<stop offset="1" stop-color="#0B0B0B"/>
</linearGradient>
<linearGradient id="paint8_linear_1_510" x1="25.5" y1="29" x2="12" y2="-1.5" gradientUnits="userSpaceOnUse">
<stop stop-color="#787676"/>
<stop offset="1" stop-color="#0B0B0B"/>
</linearGradient>
<linearGradient id="paint9_linear_1_510" x1="-0.256815" y1="31.5561" x2="22.0605" y2="21.5769" gradientUnits="userSpaceOnUse">
<stop offset="0.0407813" stop-color="#787676"/>
<stop offset="1" stop-color="#0B0B0B"/>
</linearGradient>
<linearGradient id="paint10_linear_1_510" x1="0.499751" y1="11" x2="16.4998" y2="5" gradientUnits="userSpaceOnUse">
<stop stop-color="#7B7C7D"/>
<stop offset="1" stop-color="#0B0B0B"/>
</linearGradient>
<linearGradient id="paint11_linear_1_510" x1="76" y1="16.8502" x2="96.11" y2="16.8502" gradientUnits="userSpaceOnUse">
<stop offset="0.04" stop-color="#656363"/>
<stop offset="1" stop-color="#0B0B0B"/>
</linearGradient>
<linearGradient id="paint12_linear_1_510" x1="84.72" y1="14.5799" x2="95.47" y2="14.5799" gradientUnits="userSpaceOnUse">
<stop offset="0.04" stop-color="#858383"/>
<stop offset="1" stop-color="#0B0B0B"/>
</linearGradient>
<linearGradient id="paint13_linear_1_510" x1="78.92" y1="31.6998" x2="78.92" y2="6.56982" gradientUnits="userSpaceOnUse">
<stop offset="0.04" stop-color="#565656"/>
<stop offset="1" stop-color="#0B0B0B"/>
</linearGradient>
<clipPath id="clip0_1_510">
<rect width="218" height="41" fill="white"/>
</clipPath>
</defs>
</svg>
